<svg xmlns="http://www.w3.org/2000/svg" version="1.1" xmlns:xlink="http://www.w3.org/1999/xlink" xmlns:svgjs="http://svgjs.dev/svgjs" width="180" height="180"><svg xmlns="http://www.w3.org/2000/svg" viewBox="0 0 180 180"><defs><style>.cls-1{fill:#1b1f3c;}.cls-2{fill:#fff;}</style></defs><g id="SvgjsG1017" data-name="Layer 2"><g id="SvgjsG1016" data-name="Layer 1"><rect class="cls-1" width="180" height="180" rx="36.28"></rect><path class="cls-1" d="M68.13,156.85a33.09,33.09,0,0,1-9.53-1.47c-8.08-2.43-14.22-7.22-17.76-13.83q-.12-.23-.24-.48a28.64,28.64,0,0,1-2.18-6.24c-1.6-7.32.64-14.86.74-15.17a31.17,31.17,0,0,1,10.16-14.85,35,35,0,0,1-1.89-5s-.06-.21-.07-.23a30.26,30.26,0,0,1,.41-16.82,23.71,23.71,0,0,1,8-12.29,12.29,12.29,0,0,1-2.77-2.76,34.52,34.52,0,0,1-5-10.11,3.23,3.23,0,0,1-.14-.47,26.44,26.44,0,0,1,.35-14.83,24.67,24.67,0,0,1,9.2-13.05l.23-.17a30.37,30.37,0,0,1,13.54-5.34l.2,0a47,47,0,0,1,7.13-.52,60.72,60.72,0,0,1,7.57.5l.18,0a99,99,0,0,1,15.51,3.45c15.91,4.8,27.26,12.52,33.73,23l.09.17c6.74,10.66,8.29,23,4.48,35.6-3.65,12.08-11.39,21.24-22.4,26.48-6.66,3.15-14.6,4.94-23.64,5.33a28.35,28.35,0,0,1,.49,18.69,28.68,28.68,0,0,1-13.46,17.15l-.16.09A26.08,26.08,0,0,1,68.13,156.85Zm-13.74-22.5c1.62,3,4.45,5.08,8.65,6.35a17.88,17.88,0,0,0,5.07.82,10.75,10.75,0,0,0,5.45-1.38,13.25,13.25,0,0,0,6.31-8.2,12.71,12.71,0,0,0-.74-10.09l0-.11a11.47,11.47,0,0,0-5.53-5.3,19.77,19.77,0,0,0-2.86-1.11,17.55,17.55,0,0,0-5-.8,12.2,12.2,0,0,0-2.87.33c-.35.09-.68.19-1,.29a12.09,12.09,0,0,0-1.88.85,13,13,0,0,0-6.08,8.08A13.59,13.59,0,0,0,54.39,134.35Zm23.18-32.74L81,102c3.21.31,6.31.47,9.2.47,19.45,0,31-6.86,35.23-21,2.59-8.56,1.64-16.16-2.9-23.22S109.59,45.5,97.36,41.81a85.36,85.36,0,0,0-13.22-3,45.53,45.53,0,0,0-5.57-.37,32.23,32.23,0,0,0-4.94.36,15.07,15.07,0,0,0-7.06,2.7,9.22,9.22,0,0,0-3.64,5.16,11.35,11.35,0,0,0-.24,6.37,18.56,18.56,0,0,0,1.72,4,42.64,42.64,0,0,1,8.06-.69l1.45,0H74a48.38,48.38,0,0,1,14,2.15c5.69,1.72,9.39,3.88,11.31,6.6,2.73,3.64,2.56,6.92,1.92,9-1,3.46-4.07,7.59-12.56,7.59l-1.09,0L73.66,81c-.42,0-.86,0-1.28,0a14.73,14.73,0,0,0-6.52,1.25c-1.48.74-2.62,2.42-3.4,5a14.81,14.81,0,0,0-.29,8.36,14.57,14.57,0,0,0,2.26,4.81Z"></path><path class="cls-2" d="M78.54,26.15a55.3,55.3,0,0,1,7.19.48h0A95.65,95.65,0,0,1,100.93,30c14.19,4.28,25.54,11.16,32,21.67h0c6.51,10.18,7.81,21.56,4.26,33.33-3.38,11.2-10.38,19.66-20.82,24.63-7.49,3.55-16.32,5.12-26.18,5.12h-.91c.25.41.47.82.69,1.26,0,.11.11.21.16.32a25,25,0,0,1,1.51,19.17,25.6,25.6,0,0,1-12.06,15.4h0a23.11,23.11,0,0,1-11.48,2.95,30.11,30.11,0,0,1-8.66-1.34c-6.77-2-12.56-6-16-12.37-.06-.11-.11-.21-.16-.32a25.87,25.87,0,0,1-2-5.65c-1.45-6.62.68-13.64.68-13.64a28.72,28.72,0,0,1,11.14-14.86,29.5,29.5,0,0,1-2.86-6.74c0-.05,0-.11-.05-.17a27.24,27.24,0,0,1,.39-15.16c1.46-4.84,4.32-9.79,9.71-12.47h0a23.26,23.26,0,0,1,3.46-1.37c-.28,0-.55,0-.83,0a9.31,9.31,0,0,1-7.53-3.87,31.51,31.51,0,0,1-4.61-9.33,1.42,1.42,0,0,1-.07-.22,23.61,23.61,0,0,1,.32-13.23,21.5,21.5,0,0,1,8.13-11.52l.19-.14a27.41,27.41,0,0,1,12.28-4.81l.15,0a43,43,0,0,1,6.67-.49M63.05,60.45a35.34,35.34,0,0,1,9.42-1.09l1.38,0H74a45.43,45.43,0,0,1,13.1,2c5,1.5,8.21,3.32,9.72,5.46s2.14,4.31,1.5,6.41c-1.1,3.63-4.33,5.46-9.69,5.46l-1,0L73.83,78c-.5,0-1,0-1.45,0a17.42,17.42,0,0,0-7.85,1.57q-3.39,1.68-4.94,6.81a17.87,17.87,0,0,0-.31,10,16.89,16.89,0,0,0,3,6.12c.23.27.46.53.7.77l11,1.08,3.26.32,3.4.34q5,.48,9.5.48,31.13,0,38.11-23.12,4.25-14.05-3.25-25.71-7.29-11.76-26.81-17.65a88,88,0,0,0-13.69-3,46.62,46.62,0,0,0-6-.4,34.44,34.44,0,0,0-5.4.4,18.11,18.11,0,0,0-8.38,3.25,12.16,12.16,0,0,0-4.73,6.7,14.3,14.3,0,0,0-.26,8,22,22,0,0,0,3.25,6.57m5.06,84.07A14,14,0,0,0,75,142.76a16.27,16.27,0,0,0,7.7-9.95,15.69,15.69,0,0,0-1-12.38,14.44,14.44,0,0,0-6.91-6.68,21.63,21.63,0,0,0-3.32-1.29,20.33,20.33,0,0,0-5.86-.93,14.92,14.92,0,0,0-3.57.42c-.42.1-.83.22-1.23.35a14.68,14.68,0,0,0-2.43,1.09A16,16,0,0,0,51,123.22a16.6,16.6,0,0,0,.74,12.5q3,5.61,10.45,7.85a20.72,20.72,0,0,0,5.94,1M78.54,20.15a50.47,50.47,0,0,0-7.59.56l-.26,0a33.36,33.36,0,0,0-14.76,5.86l-.28.21A27.6,27.6,0,0,0,45.37,41.41,29.48,29.48,0,0,0,45,57.91c0,.16.1.37.18.61a37.9,37.9,0,0,0,5.43,10.91c.24.33.5.66.76,1A28,28,0,0,0,44.9,81.87a33,33,0,0,0-.43,18.46s0,.07,0,.1.06.19.09.3c.34,1.13.71,2.21,1.12,3.25a34,34,0,0,0-9.4,14.77c-.28.91-2.55,8.78-.81,16.7a31.77,31.77,0,0,0,2.41,6.93c.1.21.2.41.32.63,3.9,7.29,10.66,12.57,19.52,15.24a35.88,35.88,0,0,0,10.39,1.6,29,29,0,0,0,14.19-3.6l.24-.12a31.59,31.59,0,0,0,14.86-18.9,32,32,0,0,0,.64-16.82A61.3,61.3,0,0,0,119,115.05c11.8-5.62,20.1-15.41,24-28.32,4.06-13.47,2.41-26.6-4.76-38,0-.08-.09-.15-.13-.22-6.86-11.08-18.78-19.24-35.42-24.26a101.17,101.17,0,0,0-15.92-3.53l-.25,0h0a61.1,61.1,0,0,0-7.95-.53Zm-13,32.06a8.5,8.5,0,0,1,.24-4.64,6.18,6.18,0,0,1,2.41-3.5l.14-.1A12,12,0,0,1,74,41.83h.09a28.84,28.84,0,0,1,4.48-.33,41.94,41.94,0,0,1,5.21.35A84,84,0,0,1,96.5,44.68c11.51,3.48,19.39,8.55,23.44,15.07a.22.22,0,0,0,0,.08c4,6.28,4.87,13.06,2.55,20.73-2.44,8.1-8.45,18.86-32.36,18.86-2.79,0-5.8-.15-8.93-.45l-3.38-.34-3.27-.32-8.45-.83a15.14,15.14,0,0,1-1.1-2.8A12,12,0,0,1,65.33,88c.51-1.67,1.18-2.82,1.86-3.16a12,12,0,0,1,5.19-.94l1.16,0,13.82.75h.09l1.21,0c10.88,0,14.34-6.1,15.43-9.73.83-2.73,1.1-7-2.4-11.68-2.33-3.25-6.53-5.76-12.83-7.66A51.23,51.23,0,0,0,74,53.38h-.12l-1.44,0a50.19,50.19,0,0,0-6.35.38c-.21-.5-.4-1-.56-1.53ZM62.79,118a7.38,7.38,0,0,1,.72-.2,9.16,9.16,0,0,1,2.18-.26,14.66,14.66,0,0,1,4.13.67,15.9,15.9,0,0,1,2.41.94,8.51,8.51,0,0,1,4.15,3.92c0,.07.07.14.11.2a9.74,9.74,0,0,1,.5,7.82,10.25,10.25,0,0,1-4.88,6.44,7.87,7.87,0,0,1-4,1,14.81,14.81,0,0,1-4.21-.69c-3.37-1-5.61-2.61-6.84-4.85a10.62,10.62,0,0,1-.34-8,10,10,0,0,1,4.68-6.34,8.32,8.32,0,0,1,1.39-.63Z"></path><path class="cls-2" d="M82.74,132.81a16.27,16.27,0,0,1-7.7,9.95q-5.43,3.06-12.87.81t-10.45-7.85a16.6,16.6,0,0,1-.74-12.5,16,16,0,0,1,7.48-9.83,14.68,14.68,0,0,1,2.43-1.09c.4-.13.81-.25,1.23-.35a17.9,17.9,0,0,1,9.43.51,21.63,21.63,0,0,1,3.32,1.29,14.44,14.44,0,0,1,6.91,6.68A15.69,15.69,0,0,1,82.74,132.81Z"></path><path class="cls-2" d="M128.29,82.3q-8,26.46-47.61,22.64l-3.4-.34L74,104.28,63,103.2c-.24-.24-.47-.5-.7-.77a16.89,16.89,0,0,1-3-6.12,17.87,17.87,0,0,1,.31-10q1.54-5.13,4.94-6.81A18.82,18.82,0,0,1,73.83,78l13.86.75q8.91.35,10.66-5.44c.64-2.1.13-4.24-1.5-6.41s-4.76-4-9.72-5.46a45.26,45.26,0,0,0-13.28-2,37.44,37.44,0,0,0-10.8,1.07,22,22,0,0,1-3.25-6.57,14.3,14.3,0,0,1,.26-8,12.16,12.16,0,0,1,4.73-6.7,18.11,18.11,0,0,1,8.38-3.25,40.75,40.75,0,0,1,11.37,0,88,88,0,0,1,13.69,3Q117.76,44.83,125,56.59,132.53,68.23,128.29,82.3Z"></path></g></g></svg><style>@media (prefers-color-scheme: light) { :root { filter: none; } }
@media (prefers-color-scheme: dark) { :root { filter: invert(100%); } }
</style></svg>